<?xml version="1.0" encoding="UTF-8"?>
<svg width="53px" height="55px" viewBox="0 0 53 55" version="1.1" xmlns="http://www.w3.org/2000/svg" xmlns:xlink="http://www.w3.org/1999/xlink">
    <!-- Generator: Sketch 51.2 (57519) - http://www.bohemiancoding.com/sketch -->
    <title>Group</title>
    <desc>Created with Sketch.</desc>
    <defs></defs>
    <g id="Page-1" stroke="none" stroke-width="1" fill="none" fill-rule="evenodd">
        <g id="Group" transform="translate(-1.000000, -2.000000)" fill-rule="nonzero">
            <g id="g88" transform="translate(18.874336, 22.167511) scale(-1, 1) rotate(-180.000000) translate(-18.874336, -22.167511) translate(0.001399, 0.832886)" fill="#61849C">
                <path d="M16.41125,4.923375 L26.1595325,4.923375 C30.656215,15.1820474 33.3197609,26.3482619 33.7349655,38.1627208 L9.69740762,38.1627208 C9.32979562,30.538054 7.69523512,23.3384386 4.9955845,16.5884915 L16.41125,4.923375 Z M1.41629087,16.5884915 C4.65915387,24.2410574 6.44469787,32.6747988 6.44469787,41.5122569 L36.8383329,41.5122569 C36.8383329,27.2508806 33.6726027,13.7296518 28.0025159,1.61322587 L16.41125,1.61322587 L1.41629087,16.5884915 Z" id="path90"></path>
            </g>
            <g id="g92" transform="translate(27.539476, 32.244019) scale(-1, 1) rotate(-180.000000) translate(-27.539476, -32.244019) translate(0.460914, 7.627144)" fill="#E51636">
                <path d="M36.10475,47.592625 C41.5746196,48.6905376 47.4843107,47.0658239 49.7014706,44.3185806 C54.5592006,38.3022164 49.75891,23.8800099 36.931877,13.5195877 C25.1059302,3.9715225 10.949586,0.2954025 6.47423812,5.84568725 C3.387282,9.676073 5.65695787,17.2679172 9.62848037,21.2656977 L15.951735,14.9572132 L15.951735,29.9308377 L0.956775875,29.9308377 L7.247208,23.6387645 C1.93816862,18.3116727 -0.500543125,9.49719037 3.768023,3.7483295 C5.07599962,1.98576125 7.08637775,0.933800125 9.4200575,0.4004345 C16.4440725,-1.20622688 27.4954082,2.75380775 37.2486141,10.6279255 C51.2129467,21.9057365 57.163666,36.9171069 51.2145879,44.2857581 C48.222817,47.9897772 42.682379,48.9547587 36.10475,47.592625" id="path94"></path>
            </g>
        </g>
    </g>
</svg>